<?xml version="1.0" encoding="UTF-8" standalone="no"?>
<!-- Created with Inkscape (http://www.inkscape.org/) -->

<svg
   width="100mm"
   height="100mm"
   viewBox="0 0 100 100"
   version="1.1"
   id="svg1"
   inkscape:version="1.3 (0e150ed6c4, 2023-07-21)"
   sodipodi:docname="icon.svg"
   xmlns:inkscape="http://www.inkscape.org/namespaces/inkscape"
   xmlns:sodipodi="http://sodipodi.sourceforge.net/DTD/sodipodi-0.dtd"
   xmlns="http://www.w3.org/2000/svg"
   xmlns:svg="http://www.w3.org/2000/svg">
  <sodipodi:namedview
     id="namedview1"
     pagecolor="#ffffff"
     bordercolor="#000000"
     borderopacity="0.25"
     inkscape:showpageshadow="2"
     inkscape:pageopacity="0.0"
     inkscape:pagecheckerboard="0"
     inkscape:deskcolor="#d1d1d1"
     inkscape:document-units="px"
     inkscape:zoom="2.0107307"
     inkscape:cx="175.06073"
     inkscape:cy="172.57408"
     inkscape:window-width="1920"
     inkscape:window-height="990"
     inkscape:window-x="-8"
     inkscape:window-y="-8"
     inkscape:window-maximized="1"
     inkscape:current-layer="layer4" />
  <defs
     id="defs1">
    <inkscape:path-effect
       effect="powerstroke"
       id="path-effect22"
       is_visible="true"
       lpeversion="1.3"
       scale_width="1"
       interpolator_type="CubicBezierJohan"
       interpolator_beta="0.2"
       start_linecap_type="zerowidth"
       end_linecap_type="zerowidth"
       offset_points="12,4.9921383"
       linejoin_type="extrp_arc"
       miter_limit="4"
       not_jump="false"
       sort_points="true"
       message="&lt;b&gt;Ctrl + click&lt;/b&gt; on existing node and move it" />
    <inkscape:path-effect
       effect="bspline"
       id="path-effect21"
       is_visible="true"
       lpeversion="1.3"
       weight="33.333333"
       steps="2"
       helper_size="0"
       apply_no_weight="true"
       apply_with_weight="true"
       only_selected="false"
       uniform="false" />
    <inkscape:path-effect
       effect="powerstroke"
       id="path-effect20"
       is_visible="true"
       lpeversion="1.3"
       scale_width="1"
       interpolator_type="CubicBezierJohan"
       interpolator_beta="0.2"
       start_linecap_type="zerowidth"
       end_linecap_type="zerowidth"
       offset_points="5,4.9921383"
       linejoin_type="extrp_arc"
       miter_limit="4"
       not_jump="false"
       sort_points="true"
       message="&lt;b&gt;Ctrl + click&lt;/b&gt; on existing node and move it" />
    <inkscape:path-effect
       effect="bspline"
       id="path-effect19"
       is_visible="true"
       lpeversion="1.3"
       weight="33.333333"
       steps="2"
       helper_size="0"
       apply_no_weight="true"
       apply_with_weight="true"
       only_selected="false"
       uniform="false" />
    <inkscape:path-effect
       effect="powerstroke"
       id="path-effect17"
       is_visible="true"
       lpeversion="1.3"
       scale_width="1"
       interpolator_type="CubicBezierJohan"
       interpolator_beta="0.2"
       start_linecap_type="zerowidth"
       end_linecap_type="zerowidth"
       offset_points="4,4.9921383"
       linejoin_type="extrp_arc"
       miter_limit="4"
       not_jump="false"
       sort_points="true"
       message="&lt;b&gt;Ctrl + click&lt;/b&gt; on existing node and move it" />
    <inkscape:path-effect
       effect="bspline"
       id="path-effect16"
       is_visible="true"
       lpeversion="1.3"
       weight="33.333333"
       steps="2"
       helper_size="0"
       apply_no_weight="true"
       apply_with_weight="true"
       only_selected="false"
       uniform="false" />
    <inkscape:path-effect
       effect="powerstroke"
       id="path-effect8"
       is_visible="true"
       lpeversion="1.3"
       scale_width="1"
       interpolator_type="CubicBezierJohan"
       interpolator_beta="0.2"
       start_linecap_type="zerowidth"
       end_linecap_type="zerowidth"
       offset_points="8,4.9921383"
       linejoin_type="extrp_arc"
       miter_limit="4"
       not_jump="false"
       sort_points="true"
       message="&lt;b&gt;Ctrl + click&lt;/b&gt; on existing node and move it" />
    <inkscape:path-effect
       effect="bspline"
       id="path-effect7"
       is_visible="true"
       lpeversion="1.3"
       weight="33.333333"
       steps="2"
       helper_size="0"
       apply_no_weight="true"
       apply_with_weight="true"
       only_selected="false"
       uniform="false" />
    <inkscape:path-effect
       effect="fill_between_many"
       method="bsplinespiro"
       autoreverse="false"
       close="false"
       join="false"
       linkedpaths="#path16,0,1"
       id="path-effect18" />
    <inkscape:path-effect
       effect="fill_between_many"
       method="bsplinespiro"
       autoreverse="false"
       close="false"
       join="false"
       linkedpaths="#path21,0,1"
       id="path-effect23" />
  </defs>
  <g
     inkscape:groupmode="layer"
     id="layer2"
     inkscape:label="вода">
    <rect
       style="fill:#008dff;fill-opacity:0.99342108;fill-rule:evenodd;stroke:#008cff;stroke-width:0.499999;stroke-linecap:square;stroke-miterlimit:1.4;paint-order:markers fill stroke;stroke-opacity:1"
       id="rect1"
       width="100"
       height="100"
       x="0"
       y="0" />
  </g>
  <g
     inkscape:groupmode="layer"
     id="layer3"
     inkscape:label="остров">
    <path
       style="fill:#dcfc64;fill-opacity:0.99342102;fill-rule:nonzero;stroke:none;stroke-width:0.499999;stroke-linecap:square;stroke-miterlimit:1.4;stroke-opacity:1;paint-order:markers fill stroke"
       d="m 50.934935,18.08399 c -3.616547,-0.375605 -8.344431,-0.282215 -13.310968,1.073295 -3.984835,1.087575 -8.479828,3.101967 -12.131684,6.649529 -3.254906,3.161949 -5.641833,7.370321 -6.809129,11.954654 -0.546847,2.147639 -0.831269,4.406474 -0.778705,6.668738 0.05076,2.184541 0.417824,4.424352 1.209533,6.56115 0.775489,2.093016 1.887793,3.895809 3.090531,5.46804 1.16598,1.52418 2.453156,2.876734 3.628971,4.066881 1.21491,1.229719 2.211313,2.190892 3.133537,3.205821 0.885359,0.974356 1.478327,1.763509 1.850318,2.460216 0.358689,0.671793 0.634841,1.489375 0.88361,2.5605 0.24237,1.043574 0.434551,2.270962 0.721778,3.650223 0.270704,1.299915 0.681551,2.977369 1.517541,4.57037 0.4329,0.8249 0.993597,1.657484 1.731587,2.429992 0.742887,0.777633 1.615725,1.442004 2.620284,1.970427 0.98152,0.516305 2.014965,0.864093 3.022259,1.097676 1.013049,0.234917 2.060452,0.368398 3.105394,0.426389 2.085701,0.115749 4.321634,-0.06051 6.546368,-0.453115 4.478198,-0.79028 9.311692,-2.52738 13.416512,-5.094508 4.253284,-2.659975 7.621449,-6.14291 10.059386,-10.006462 2.530716,-4.010587 4.057621,-8.423 4.595987,-12.832633 0.56778,-4.650567 0.02807,-9.192267 -1.142233,-13.227047 C 76.623108,36.896321 74.580859,33.002181 72.174648,29.847123 69.430821,26.24938 66.226411,23.619328 62.893113,21.770556 58.796542,19.498446 54.626498,18.467387 50.934935,18.08399 Z m -1.031395,9.930862 c 2.635459,0.273712 5.455917,0.99441 8.146908,2.486934 2.174852,1.206254 4.309863,2.94096 6.185249,5.399992 1.673005,2.193667 3.14809,4.981624 4.071065,8.163697 0.849011,2.927074 1.202867,6.104608 0.820595,9.235715 -0.361229,2.958752 -1.39266,5.96273 -3.129066,8.714523 -1.668556,2.644266 -3.97773,5.035787 -6.909668,6.869402 -2.920352,1.826368 -6.525098,3.139216 -9.857605,3.727313 -1.635157,0.288561 -3.089123,0.381394 -4.257975,0.316527 -0.578133,-0.03208 -1.044634,-0.100494 -1.403225,-0.183648 -0.363416,-0.08427 -0.558183,-0.170267 -0.629548,-0.207806 -0.06126,-0.03223 -0.04228,-0.02387 -0.04902,-0.03092 -0.0067,-0.0071 -0.0409,-0.04077 -0.110158,-0.172742 -0.167497,-0.31917 -0.356827,-0.876475 -0.583787,-1.966332 -0.21333,-1.024407 -0.419249,-2.359182 -0.77093,-3.873417 -0.351158,-1.511982 -0.871256,-3.261961 -1.801554,-5.00433 -0.928667,-1.739313 -2.137612,-3.227557 -3.268447,-4.472066 -1.108896,-1.220365 -2.421894,-2.497889 -3.420304,-3.508469 -1.105509,-1.118985 -2.031116,-2.109071 -2.801544,-3.116182 -0.774732,-1.012738 -1.316245,-1.947519 -1.658231,-2.870528 -0.354294,-0.956229 -0.56139,-2.081566 -0.590264,-3.324227 -0.02979,-1.282156 0.131544,-2.633464 0.472667,-3.973162 0.738346,-2.899711 2.231851,-5.451243 4.090529,-7.256838 2.093439,-2.033652 4.90484,-3.387877 7.80358,-4.179025 3.569173,-0.974129 7.029932,-1.0466 9.650732,-0.77441 z"
       id="path7"
       inkscape:path-effect="#path-effect7;#path-effect8"
       inkscape:original-d="m 51.713164,20.395777 c -8.684654,1.886061 -17.369306,3.772122 -26.05396,5.658184 -2.06155,8.55324 -4.123018,17.106134 -6.184527,25.659203 6.579415,3.640608 13.158565,7.281074 19.73785,10.921611 -1.403609,6.05306 -2.807163,12.10588 -4.210743,18.158819 9.82526,-1.622922 19.650125,-3.245778 29.475189,-4.868669 4.342413,-7.237357 8.684654,-14.474423 13.02698,-21.711634 C 75.003775,46.361857 72.503698,38.510736 70.003571,30.659459 63.906645,27.238163 57.809965,23.817004 51.713164,20.395777 Z" />
    <path
       style="fill:#dcfc64;fill-opacity:0.993421;fill-rule:evenodd;stroke:none;stroke-width:0.46992;stroke-linecap:square;stroke-miterlimit:1.4;stroke-opacity:1;paint-order:markers fill stroke"
       d="m 177.84268,105.29152 c -6.71861,-0.0678 -13.44624,0.43363 -20.01016,1.92124 -14.38415,2.98374 -28.77831,9.18904 -38.48604,20.58301 -10.82353,12.63865 -16.12884,30.09374 -13.4333,46.58308 1.81031,10.11382 8.88259,18.14501 15.79188,25.29862 9.7502,10.26719 20.66569,19.80975 27.53014,32.40068 6.24794,11.11597 7.82865,23.96835 10.54614,36.23215 0.69217,2.18456 0.87556,5.07705 3.0666,6.32992 6.02679,1.99073 12.54896,1.39169 18.75081,0.72111 15.85657,-2.14916 31.3383,-7.73796 44.65169,-16.66049 20.97781,-14.04131 34.82829,-38.28904 35.76067,-63.56936 0.76441,-20.15706 -5.59632,-40.40191 -17.09568,-56.90874 -9.2143,-13.29637 -22.65131,-23.72191 -38.09696,-28.69832 -8.77913,-2.87895 -18.01321,-4.47431 -27.26767,-4.2363 -0.56937,10e-4 -1.13874,0.002 -1.70812,0.003 z"
       id="path15"
       transform="scale(0.26458333)" />
  </g>
  <g
     inkscape:groupmode="layer"
     id="layer4"
     inkscape:label="растительность">
    <path
       inkscape:original-d="M 0,0"
       inkscape:path-effect="#path-effect18"
       d="m 56.625695,63.314633 c -2.193094,-1.074616 -5.329218,-0.350895 -6.217408,2.193137 -0.88819,2.544033 0.471501,6.908203 2.664625,7.982798 2.193125,1.074595 5.219534,-1.140386 6.107725,-3.684405 0.888191,-2.544019 -0.361848,-5.416915 -2.554942,-6.49153 z"
       id="path18"
       style="fill:#008400" />
    <path
       style="fill:none;fill-opacity:0.993421;fill-rule:nonzero;stroke:none;stroke-width:0.499999;stroke-linecap:square;stroke-miterlimit:1.4;stroke-opacity:1;paint-order:markers fill stroke"
       d="m 58.822312,58.831741 c -1.003363,-0.491648 -2.225581,-0.867042 -3.616761,-0.965277 -1.116552,-0.07884 -2.377292,0.02068 -3.664089,0.421962 -1.135784,0.354189 -2.352336,0.965014 -3.43926,1.945525 -1.016246,0.916752 -1.883529,2.128762 -2.407068,3.628331 -0.477328,1.367205 -0.600006,2.777953 -0.540245,4.049344 0.05836,1.241658 0.297431,2.500087 0.683831,3.685599 0.374686,1.149568 0.924745,2.342279 1.684394,3.422357 0.379984,0.540266 0.835459,1.084968 1.377641,1.586952 0.540343,0.500281 1.19618,0.985052 1.975599,1.366955 0.790327,0.387247 1.610535,0.620993 2.424585,0.72416 0.811156,0.102801 1.59013,0.073 2.310006,-0.04138 1.434826,-0.227981 2.694492,-0.799164 3.713625,-1.457383 1.054251,-0.6809 1.972907,-1.531691 2.719783,-2.45685 0.776323,-0.961636 1.425211,-2.075285 1.849434,-3.290375 0.453649,-1.299373 0.607975,-2.591687 0.558647,-3.787662 C 64.399057,66.36983 64.108008,65.174715 63.68358,64.130157 63.202246,62.945548 62.540343,61.92851 61.795538,61.095995 60.86984,60.061284 59.832862,59.32691 58.822312,58.831741 Z m -4.393233,8.965784 c -0.06226,-0.0305 -0.09067,-0.06244 -0.07458,-0.04445 0.01451,0.01622 0.04897,0.06107 0.07922,0.135512 0.02696,0.06635 0.04068,0.132371 0.04292,0.186857 0.0019,0.0468 -0.0034,0.06881 -0.0092,0.08522 -0.01,0.02854 -0.06131,0.148075 -0.191824,0.309748 -0.125381,0.155309 -0.263389,0.27384 -0.367984,0.341393 -0.112356,0.07257 -0.07642,0.01771 0.13651,-0.01612 0.115154,-0.0183 0.290823,-0.03112 0.512053,-0.0031 0.225712,0.02861 0.471543,0.09663 0.713229,0.215047 0.230777,0.113078 0.364392,0.226256 0.414415,0.27257 0.05054,0.04679 0.047,0.054 0.0059,-0.0045 -0.09136,-0.129904 -0.234396,-0.3925 -0.358271,-0.772558 -0.124356,-0.381537 -0.189131,-0.75808 -0.203339,-1.060356 -0.01389,-0.295514 0.04699,-0.443408 -0.0067,-0.289578 -0.06571,0.188212 -0.189166,0.365791 -0.331526,0.494214 -0.139882,0.126187 -0.239494,0.161112 -0.276073,0.17252 -0.04133,0.01289 -0.01946,0.0054 -0.01156,0.0059 0.0097,6.87e-4 -0.01093,0.0021 -0.0732,-0.02842 z"
       id="path16"
       inkscape:path-effect="#path-effect16;#path-effect17"
       inkscape:original-d="m 57.568726,61.516296 c -3.136125,0.72372 -6.272249,1.447443 -9.408374,2.171163 1.359744,4.364344 2.719435,8.728514 4.079155,13.092774 3.026529,-2.215071 6.052939,-4.430051 9.07941,-6.645077 -1.25009,-2.873012 -2.500127,-5.745908 -3.750191,-8.61886 z"
       inkscape:linked-fill="path18" />
    <path
       style="fill:#008400;fill-opacity:1;fill-rule:nonzero;stroke:none;stroke-width:0.499999;stroke-linecap:square;stroke-miterlimit:1.4;stroke-opacity:1;paint-order:markers fill stroke"
       d="m 52.366863,34.637277 c -1.492082,0.922378 -3.598348,1.967749 -6.106783,3.49648 -0.982046,0.598494 -2.119927,1.349286 -3.17859,2.261205 -0.985929,0.849265 -2.02956,1.94408 -2.851304,3.352096 -0.776991,1.331332 -1.296801,2.842721 -1.484558,4.442646 -0.179627,1.530641 -0.05591,3.15834 0.458352,4.757288 0.500397,1.555838 1.360987,3.050242 2.608797,4.342062 1.220633,1.263685 2.747833,2.2675 4.527722,2.959091 1.714861,0.666324 3.617288,1.025216 5.513869,1.137524 1.898561,0.112426 3.907505,-0.01518 5.887713,-0.404349 1.978717,-0.388881 3.996302,-1.052447 5.8757,-2.056441 1.896537,-1.013149 3.700462,-2.399982 5.144042,-4.238814 1.452823,-1.85061 2.372641,-3.945129 2.934114,-5.950124 0.57642,-2.05837 0.81244,-4.151033 0.816171,-6.077517 0.0039,-1.988355 -0.238868,-3.916944 -0.692435,-5.618831 -0.235122,-0.882229 -0.539246,-1.750402 -0.925213,-2.564051 -0.390336,-0.822857 -0.907386,-1.680881 -1.598937,-2.449905 -0.741415,-0.824474 -1.639146,-1.496326 -2.68224,-1.949261 -1.072557,-0.46573 -2.139919,-0.631487 -3.106257,-0.627422 -0.983829,0.0041 -1.871451,0.183401 -2.605486,0.399225 -0.772023,0.226993 -1.478928,0.525835 -2.08481,0.818331 -1.274869,0.615455 -2.5336,1.419685 -3.448795,2.016998 -1.394368,0.910052 -1.977337,1.320914 -3.001072,1.953769 z m 5.249954,8.492571 c 1.158502,-0.716165 2.023583,-1.312201 3.208074,-2.085274 0.912821,-0.595765 1.695147,-1.079022 2.332502,-1.386712 0.281293,-0.135797 0.463513,-0.202339 0.560543,-0.230868 0.07947,-0.02337 0.03715,0.0053 -0.168917,0.0061 -0.207734,8.74e-4 -0.538987,-0.03646 -0.91242,-0.198614 -0.367359,-0.159516 -0.62177,-0.373453 -0.765068,-0.532805 -0.110318,-0.122676 -0.08865,-0.138421 0.0021,0.05297 0.08294,0.17485 0.192004,0.456587 0.298463,0.856044 0.208056,0.780672 0.358032,1.832138 0.355715,3.028349 -0.0022,1.153313 -0.146421,2.333537 -0.446319,3.40446 -0.295004,1.053446 -0.707246,1.883883 -1.173052,2.477227 -0.449439,0.572496 -1.10459,1.121888 -1.995192,1.597656 -0.88712,0.473909 -1.944872,0.839668 -3.096602,1.066019 -1.149707,0.225954 -2.313343,0.297098 -3.372122,0.234401 -1.082445,-0.0641 -1.929288,-0.260056 -2.487968,-0.477136 -0.525719,-0.204273 -0.811093,-0.432373 -0.962603,-0.589227 -0.155954,-0.161455 -0.238675,-0.317691 -0.28524,-0.46247 -0.05096,-0.15846 -0.06985,-0.340992 -0.0469,-0.536605 0.02423,-0.20645 0.09252,-0.404186 0.191466,-0.573732 0.105007,-0.179923 0.317237,-0.45208 0.744336,-0.819977 0.466892,-0.402175 1.084158,-0.828395 1.858322,-1.300198 1.869728,-1.13948 4.259311,-2.35417 6.160838,-3.529659 z"
       id="path19"
       inkscape:path-effect="#path-effect19;#path-effect20"
       inkscape:original-d="m 55.200184,39.804662 c -4.430051,1.688682 -8.860102,3.377364 -13.290153,5.066049 0.833393,4.474001 1.666753,8.947824 2.50013,13.421735 8.310155,-0.921117 16.619977,-1.842198 24.929968,-2.763297 C 68.64016,46.756595 67.940223,37.984392 67.240271,29.212016 63.22683,32.742968 59.213546,36.273779 55.200184,39.804662 Z" />
    <path
       style="fill:#008400;fill-opacity:1;fill-rule:evenodd;stroke:none;stroke-width:0.46992;stroke-linecap:square;stroke-miterlimit:1.4;stroke-opacity:1;paint-order:markers fill stroke"
       d="m 235.16064,151.47099 c -9.35922,5.9105 -18.44738,12.24362 -28.22655,17.45764 -6.52221,3.8221 -13.41542,7.15221 -19.33165,11.9084 -2.14548,1.82084 -4.63849,4.37826 -3.79615,7.46759 1.09561,3.50146 5.10662,4.69257 8.30554,5.42451 9.08626,2.01464 18.74249,0.796 27.35567,-2.577 5.52839,-2.1383 10.64221,-5.91789 13.23416,-11.37646 3.33277,-6.64821 4.03463,-14.24111 3.7232,-21.57441 -0.10109,-2.25499 -0.13285,-4.62036 -0.8786,-6.74047 -0.11149,0.087 -0.2774,-0.0928 -0.38562,0.0102 z"
       id="path20"
       transform="scale(0.26458333)" />
    <path
       inkscape:original-d="M 0,0"
       inkscape:path-effect="#path-effect23"
       d="m 51.965369,32.117867 c 3.300606,-1.875095 6.656042,-4.002397 7.017877,-6.052961 0.361834,-2.050563 -2.269828,-4.024309 -6.688974,-4.430019 -4.419146,-0.405711 -10.62548,0.756606 -15.373562,2.631727 -4.748082,1.875121 -8.037658,4.462922 -10.252695,8.728549 -2.215036,4.265628 -3.355422,10.208794 -2.445258,15.05557 0.910163,4.846777 3.870781,8.596894 6.458654,11.91946 2.587873,3.322567 4.802854,6.217393 7.243034,6.794787 2.440181,0.577394 5.10541,-1.162635 4.973793,-3.454447 -0.131616,-2.291812 -3.060009,-5.135259 -4.546166,-8.465042 -1.486158,-3.329783 -1.530019,-7.145689 -0.652763,-10.161216 0.877256,-3.015527 2.675557,-5.230508 5.197648,-7.149482 2.522092,-1.918974 5.767805,-3.541831 9.068412,-5.416926 z"
       id="path23"
       style="fill:#008400" />
    <path
       style="fill:none;fill-opacity:1;fill-rule:nonzero;stroke:none;stroke-width:0.499999;stroke-linecap:square;stroke-miterlimit:1.4;stroke-opacity:1;paint-order:markers fill stroke"
       d="m 54.431284,36.458455 c 0.790102,-0.448862 1.721368,-0.989637 2.637057,-1.567694 0.824495,-0.520487 1.738338,-1.134765 2.599213,-1.81364 0.77675,-0.612535 1.661314,-1.394707 2.416533,-2.331142 0.367377,-0.45553 0.745187,-0.997732 1.06784,-1.624637 0.314229,-0.610539 0.598645,-1.345326 0.747507,-2.188945 0.147047,-0.833337 0.146273,-1.686742 -0.008,-2.529099 -0.149697,-0.817528 -0.434234,-1.572769 -0.809049,-2.251605 -0.716701,-1.298034 -1.746372,-2.292924 -2.823847,-3.033207 -1.043552,-0.716974 -2.231913,-1.265793 -3.491814,-1.666229 -1.22429,-0.389118 -2.572191,-0.656041 -4.016074,-0.788601 -1.396397,-0.1282 -2.8732,-0.129766 -4.37188,-0.03449 -1.464077,0.09308 -2.984536,0.280929 -4.512395,0.549548 -2.936295,0.516242 -6.011051,1.351456 -8.779383,2.444731 -2.68566,1.060626 -5.211546,2.415072 -7.443623,4.280264 -2.195146,1.834333 -3.990762,4.065814 -5.405805,6.790846 -1.354956,2.609321 -2.353279,5.655855 -2.885068,8.770179 -0.521772,3.055674 -0.62582,6.367246 -0.03615,9.507356 0.590772,3.145959 1.837529,5.868842 3.227954,8.181905 1.359194,2.261109 2.938669,4.266121 4.198623,5.883774 1.232922,1.582946 2.62264,3.391196 4.042948,4.846282 0.733967,0.751939 1.573467,1.513785 2.522449,2.163038 0.968378,0.662523 2.114691,1.255999 3.466598,1.575886 1.358581,0.321467 2.704758,0.312143 3.950049,0.06404 1.243124,-0.247677 2.424392,-0.742395 3.457874,-1.445155 1.039528,-0.706871 1.994249,-1.669779 2.681999,-2.885576 0.706116,-1.248265 1.109143,-2.73259 1.017293,-4.331967 -0.04501,-0.783746 -0.203499,-1.491749 -0.394346,-2.097981 -0.191631,-0.608718 -0.4312,-1.162868 -0.66974,-1.646249 -0.466703,-0.945734 -1.044544,-1.845674 -1.520341,-2.565522 -1.110839,-1.680621 -1.86198,-2.727445 -2.386976,-3.903716 -0.473314,-1.060475 -0.726805,-2.236612 -0.785402,-3.412308 -0.06163,-1.236553 0.096,-2.386971 0.367372,-3.319792 0.276312,-0.949808 0.682263,-1.715795 1.187908,-2.392628 0.560938,-0.750847 1.300593,-1.464308 2.239158,-2.17843 1.05456,-0.802379 2.330798,-1.582834 3.697049,-2.363897 1.600616,-0.915046 3.274147,-1.810285 4.814437,-2.685334 z m -4.931831,-8.681176 c -1.409353,0.800662 -3.046724,1.674719 -4.83786,2.698683 -1.461572,0.835556 -3.197699,1.876331 -4.787471,3.085934 -1.458075,1.1094 -2.930798,2.46029 -4.192122,4.148641 -1.1802,1.579763 -2.146807,3.41606 -2.776112,5.579262 -0.580896,1.996805 -0.869455,4.257685 -0.752427,6.605739 0.111605,2.239252 0.598365,4.650961 1.63992,6.9846 0.954737,2.139117 2.361604,4.109045 3.175094,5.339798 0.450687,0.681858 0.727472,1.136641 0.896176,1.478507 0.07286,0.147638 0.102169,0.233954 0.09966,0.225972 -0.0025,-0.0079 -0.03773,-0.114108 -0.04999,-0.327661 -0.02635,-0.458856 0.09605,-0.86592 0.260335,-1.156344 0.151011,-0.266956 0.31355,-0.400134 0.394011,-0.454848 0.08205,-0.05579 0.148381,-0.07901 0.205453,-0.09038 0.0668,-0.01331 0.164615,-0.02019 0.299829,0.0118 0.134563,0.03184 0.08861,0.04794 -0.127921,-0.100195 -0.23187,-0.158635 -0.56505,-0.435517 -1.015293,-0.896784 -0.942889,-0.965978 -1.951324,-2.261882 -3.31086,-4.007388 -1.332916,-1.711329 -2.524032,-3.238477 -3.518313,-4.892529 -0.974802,-1.621648 -1.658556,-3.209345 -1.972418,-4.880712 -0.325969,-1.735838 -0.303254,-3.826215 0.06521,-5.984088 0.372999,-2.1844 1.065005,-4.233644 1.904088,-5.849516 0.826158,-1.590981 1.79863,-2.770881 2.947116,-3.730592 1.203736,-1.005879 2.725601,-1.872171 4.708846,-2.655398 2.080229,-0.821527 4.498713,-1.485834 6.840865,-1.897617 1.204053,-0.211689 2.357356,-0.351476 3.416987,-0.41884 1.093714,-0.06953 2.04271,-0.05909 2.825625,0.01279 0.799764,0.07342 1.433234,0.211549 1.904637,0.361376 0.496205,0.157709 0.763053,0.312071 0.862174,0.380172 0.09165,0.06297 -0.05984,-0.0025 -0.262731,-0.369985 -0.106741,-0.19332 -0.21261,-0.454553 -0.271482,-0.776062 -0.06111,-0.333745 -0.06117,-0.676898 -0.0034,-1.004205 0.05745,-0.325606 0.151895,-0.53729 0.207385,-0.645105 0.05305,-0.103075 0.08079,-0.127351 0.03787,-0.07413 -0.106011,0.131449 -0.358676,0.389623 -0.827178,0.759078 -0.486506,0.383653 -1.083195,0.792024 -1.74653,1.210775 -0.724202,0.457175 -1.501775,0.91034 -2.239154,1.329249 z"
       id="path21"
       inkscape:path-effect="#path-effect21;#path-effect22"
       inkscape:original-d="m 51.910543,32.370072 c 3.355432,-2.1273 6.710868,-4.254603 10.066303,-6.381904 -2.631766,-1.973825 -5.263428,-3.94757 -7.89514,-5.921355 -6.20658,1.162363 -12.412914,2.32468 -18.619372,3.48702 -3.289705,2.587903 -6.579283,5.175702 -9.868923,7.763554 -1.140432,5.943404 -2.280818,11.88657 -3.421227,17.829856 2.960736,3.750267 5.921353,7.500384 8.88203,11.250575 2.215071,2.894941 4.430051,5.789768 6.645077,8.684654 2.665335,-1.740098 5.330563,-3.480128 7.995843,-5.220189 -2.928512,-2.843562 -5.856904,-5.68701 -8.785357,-8.530514 -0.04386,-3.816061 -0.08772,-7.631967 -0.131586,-11.447951 1.798373,-2.215071 3.596675,-4.430051 5.395013,-6.645077 3.245845,-1.622922 6.491558,-3.245779 9.737339,-4.868669 z"
       inkscape:linked-fill="path23" />
  </g>
  <g
     inkscape:label="фон"
     inkscape:groupmode="layer"
     id="layer1" />
</svg>
