<?xml version="1.0" encoding="UTF-8" standalone="no" ?>
<!DOCTYPE svg PUBLIC "-//W3C//DTD SVG 1.1//EN" "http://www.w3.org/Graphics/SVG/1.1/DTD/svg11.dtd">
<svg xmlns="http://www.w3.org/2000/svg" xmlns:xlink="http://www.w3.org/1999/xlink" version="1.1" width="500" height="500" viewBox="0 0 500 500" xml:space="preserve">
<desc>Created with Fabric.js 5.3.0</desc>
<defs>
</defs>
<g transform="matrix(1 0 0 1 250 250)" id="wxG1BpAEgFlWFzaU-PG5p"  >
<filter id="SVGID_14" y="-23.84234999%" height="147.68469998%" x="-23.84234999%" width="147.68469998%" >
	<feGaussianBlur in="SourceAlpha" stdDeviation="7"></feGaussianBlur>
	<feOffset dx="4" dy="4" result="oBlur" ></feOffset>
	<feFlood flood-color="rgb(0,0,0)" flood-opacity="1"/>
	<feComposite in2="oBlur" operator="in" />
	<feMerge>
		<feMergeNode></feMergeNode>
		<feMergeNode in="SourceGraphic"></feMergeNode>
	</feMerge>
</filter>
<path style="stroke: rgb(0,0,0); stroke-width: 10; stroke-dasharray: none; stroke-linecap: butt; stroke-dashoffset: 0; stroke-linejoin: miter; stroke-miterlimit: 4; fill: rgb(69,102,165); fill-rule: nonzero; opacity: 1;filter: url(#SVGID_14);" vector-effect="non-scaling-stroke"  transform=" translate(-234.2316558883, -234.2316558883)" d="M 234.23165 0 C 363.52752 0 468.4633 104.93578 468.4633 234.23165 C 468.4633 363.52752 363.52752 468.4633 234.23165 468.4633 C 104.93578 468.4633 0 363.52752 0 234.23165 C 0 104.93578 104.93578 0 234.23165 0 z" stroke-linecap="round" />
</g>
<g transform="matrix(1 0 0 1 26.376146789 295.2981651376)" id="excth7ETbULTesOZr61ao"  >
<path style="stroke: rgb(0,0,0); stroke-width: 1; stroke-dasharray: none; stroke-linecap: butt; stroke-dashoffset: 0; stroke-linejoin: miter; stroke-miterlimit: 4; fill: rgb(255,255,255); fill-opacity: 0; fill-rule: nonzero; opacity: 1;" vector-effect="non-scaling-stroke"  transform=" translate(0, 0)" d="M 0 0" stroke-linecap="round" />
</g>
<g transform="matrix(1 0 0 1 67.6605504587 239.6788990826)" id="IVxDXlq-m7oUVXUk4q1nZ"  >
<path style="stroke: rgb(0,0,0); stroke-width: 1; stroke-dasharray: none; stroke-linecap: butt; stroke-dashoffset: 0; stroke-linejoin: miter; stroke-miterlimit: 4; fill: rgb(255,255,255); fill-opacity: 0; fill-rule: nonzero; opacity: 1;" vector-effect="non-scaling-stroke"  transform=" translate(0, 0)" d="M 0 0" stroke-linecap="round" />
</g>
<g transform="matrix(1 0 0 1 22.3623853211 284.4036697248)" id="D-sIruSGxxdY4vwez8TWk"  >
<path style="stroke: rgb(0,0,0); stroke-width: 1; stroke-dasharray: none; stroke-linecap: butt; stroke-dashoffset: 0; stroke-linejoin: miter; stroke-miterlimit: 4; fill: rgb(255,255,255); fill-opacity: 0; fill-rule: nonzero; opacity: 1;" vector-effect="non-scaling-stroke"  transform=" translate(0, 0)" d="M 0 0" stroke-linecap="round" />
</g>
<g transform="matrix(1.02211509 0 0 1 250 271.3473326702)" id="QZULouyV9wfvGHUWuI273"  >
<path style="stroke: rgb(0,0,0); stroke-width: 1; stroke-dasharray: none; stroke-linecap: butt; stroke-dashoffset: 0; stroke-linejoin: miter; stroke-miterlimit: 4; fill: rgb(255,255,255); fill-opacity: 0; fill-rule: nonzero; opacity: 1;" vector-effect="non-scaling-stroke"  transform=" translate(0, 0)" d="M -225.30734 10.68936 C -225.30734 10.68936 -3.477060000000023 -44.28312 225.30734 13.05633" stroke-linecap="round" />
</g>
<g transform="matrix(0.95595794 0 0 1 249.713286003 326.6454978078)" id="Ui4B1kMFf3ybKcYx17e6Y"  >
<path style="stroke: rgb(0,0,0); stroke-width: 1; stroke-dasharray: none; stroke-linecap: butt; stroke-dashoffset: 0; stroke-linejoin: miter; stroke-miterlimit: 4; fill: rgb(255,255,255); fill-opacity: 0; fill-rule: nonzero; opacity: 1;" vector-effect="non-scaling-stroke"  transform=" translate(0, 0)" d="M -225.30734 10.68936 C -225.30734 10.68936 -3.477060000000023 -44.28312 225.30734 13.05633" stroke-linecap="round" />
</g>
<g transform="matrix(1 0 0 1 19.2099684688 227.0642201835)" id="9jBlXYGs3GYPoriTid6Yp"  >
<path style="stroke: rgb(0,0,0); stroke-width: 1; stroke-dasharray: none; stroke-linecap: butt; stroke-dashoffset: 0; stroke-linejoin: miter; stroke-miterlimit: 4; fill: rgb(255,255,255); fill-opacity: 0; fill-rule: nonzero; opacity: 1;" vector-effect="non-scaling-stroke"  transform=" translate(0, 0)" d="M 0 0" stroke-linecap="round" />
</g>
<g transform="matrix(1 0 0 1 252.8669724771 250)" id="l-sKHsa6p4rc7TDKkFjUX"  >
<path style="stroke: rgb(0,0,0); stroke-width: 0; stroke-dasharray: none; stroke-linecap: butt; stroke-dashoffset: 0; stroke-linejoin: miter; stroke-miterlimit: 4; fill: rgb(69,102,165); fill-rule: nonzero; opacity: 1;" vector-effect="non-scaling-stroke"  transform=" translate(-61.3532055271, -61.3532055271)" d="M 61.35321 0 C 95.22018 0 122.70642 27.48624 122.70642 61.35321 C 122.70642 95.22018 95.22018 122.70642 61.35321 122.70642 C 27.486239999999995 122.70642 0 95.22018 0 61.35321 C 0 27.486239999999995 27.48624 0 61.35321 0 z" stroke-linecap="round" />
</g>
</svg>